<?xml version="1.0" encoding="UTF-8"?>
<svg id="Ebene_2" data-name="Ebene 2" xmlns="http://www.w3.org/2000/svg" xmlns:xlink="http://www.w3.org/1999/xlink" viewBox="0 0 123.07 100.13">
  <defs>
    <style>
      .cls-1 {
        fill: url(#Unbenannter_Verlauf_515);
      }

      .cls-2 {
        fill: url(#Unbenannter_Verlauf_547);
      }
    </style>
    <linearGradient id="Unbenannter_Verlauf_515" data-name="Unbenannter Verlauf 515" x1="52.91" y1="56.35" x2="108.94" y2="56.35" gradientUnits="userSpaceOnUse">
      <stop offset="0" stop-color="#fff"/>
      <stop offset=".95" stop-color="#9a86b8"/>
    </linearGradient>
    <linearGradient id="Unbenannter_Verlauf_547" data-name="Unbenannter Verlauf 547" x1="0" y1="50.06" x2="126.19" y2="50.06" gradientUnits="userSpaceOnUse">
      <stop offset="0" stop-color="#fff"/>
      <stop offset=".95" stop-color="#9a86b8"/>
    </linearGradient>
  </defs>
  <g id="Ebene_1-2" data-name="Ebene 1">
    <g>
      <path class="cls-1" d="M91.64,53.93c9.67-3.15,14.27-9.44,14.27-20.12,0-13.48-9.33-21.23-25.52-21.23h-16.13c-7.98,0-11.35,3.48-11.35,12.14v53.82h0c5.77,0,10.46-4.68,10.46-10.46v-7.44c-.06-.33-.1-.68-.09-1.05,0-3.35.07-6.69.12-10.04h-.03v-24.05c0-2.24,1.12-3.6,3.25-3.6h12.99c10.23,0,15.51,4.5,15.51,13.26s-5.62,14.38-15.29,14.38h-6.04c-.04,3.08-.1,6.14-.11,9.22h6.5c11.46,0,17.64,5.51,17.64,16.08s-8.01,16.22-19.36,16.22l-4.36.38h0l-10.57.41c-6.01,0-6.3,8.01-.3,8.25.34.01.68.02,1.03.02h17.37c17.32,0,27.31-8.99,27.31-24.28,0-12.14-5.84-19.56-17.3-21.92Z"/>
      <path class="cls-2" d="M93.21,98.04c-.64.25-1.29.48-1.93.7l-1.67.39c-.57.14-1.04.17-1.57.26-.51.09-1.02.16-1.51.21-.98.11-1.95.2-2.9.25-.96.07-1.88.12-2.82.16-3.72.14-7.36.14-10.98.07-1.81-.03-3.61-.1-5.41-.16l-2.67-.11c-.83-.03-1.76-.08-2.69-.13l-5.55-.32-.63-.04-.81-.09c-.54-.08-1.08-.16-1.62-.27-1.07-.22-2.13-.5-3.17-.88-2.07-.74-4.05-1.78-5.83-3.11-.9-.66-1.74-1.39-2.53-2.18l-1.91-1.98-7.37-7.7-7.37-7.7c-2.49-2.54-4.81-5.23-7.56-7.52-2.75-2.29-5.15-4.91-7.6-7.49-1.23-1.29-2.4-2.62-3.61-3.93l-.45-.49-.22-.25-.34-.38c-.59-.67-1.07-1.43-1.47-2.23-.77-1.61-1.13-3.41-.99-5.18.11-1.76.72-3.49,1.7-4.96.26-.35.51-.72.81-1.04l.45-.48.25-.25.96-.93,3.83-3.71,7.66-7.42,15.32-14.84,7.66-7.42.99-.95c.4-.38.8-.74,1.23-1.09.85-.69,1.73-1.33,2.67-1.87,1.87-1.11,3.91-1.92,6.02-2.42,1.06-.24,2.13-.4,3.2-.49.54-.04,1.08-.06,1.62-.06h.73s.67.02.67.02l5.33.11,10.66.21,21.32.42,10.72.23c4.1.16,8.16,1.58,11.38,4.07.83.6,1.56,1.31,2.29,2.01.67.76,1.36,1.51,1.93,2.35,1.16,1.65,2.12,3.46,2.7,5.4.59,1.92.97,3.93.94,5.93,0,1.87-.06,3.58-.09,5.38l-.85,42.64-.22,10.68c-.12,3.6-.47,7.31-1.88,10.77-.69,1.72-1.64,3.4-2.98,4.74-1.32,1.36-2.95,2.38-4.68,3.05-1.75.64-3.58.92-5.39,1.06-.9.02-1.82.04-2.71.02-.44-.01-.89,0-1.33-.06-.22-.02-.44-.06-.67-.1l-.33-.07c-.11-.03-.22.01-.33-.26.11-.27.22-.22.33-.26l.33-.07c.22-.04.44-.08.67-.1.44-.05.89-.04,1.33-.06.89-.02,1.75-.07,2.62-.12,1.72-.2,3.42-.54,5-1.18,1.55-.67,2.95-1.64,4.06-2.88,1.13-1.22,1.92-2.74,2.48-4.33,1.16-3.19,1.37-6.71,1.34-10.18l-.2-10.64-.85-42.65c-.04-1.76-.05-3.61-.12-5.28-.04-1.56-.4-3.08-.9-4.52-.5-1.46-1.29-2.79-2.21-4.01-.45-.62-1-1.16-1.52-1.71-.58-.5-1.14-1.02-1.78-1.43-2.48-1.76-5.49-2.67-8.48-2.67l-10.6.19-21.32.42-10.66.21-5.33.11h-.67c-.23.02-.45.02-.6.03-.35,0-.7.04-1.04.08-.69.09-1.38.22-2.05.4-1.34.38-2.61.95-3.77,1.7-.58.37-1.12.8-1.64,1.25-.26.23-.5.47-.74.71l-.9.94-7.36,7.72-14.72,15.43-7.36,7.72-3.68,3.86-.92.96-.22.23s0,.01,0,.01c-.01,0,.01.02,0,.01.02.02.02.02.05.04,0,.01.05,0,.04,0,.02-.02,0-.01.02-.03l.81.83c1.24,1.28,2.5,2.53,3.71,3.82,2.43,2.59,4.91,5.14,7.04,8.02,2.13,2.88,4.69,5.35,7.08,7.98l7.27,7.8,7.27,7.8,1.76,1.89c.46.48.95.92,1.48,1.32,1.06.8,2.27,1.43,3.54,1.88.64.23,1.3.4,1.97.54.33.07.67.12,1.01.17l.51.06c.33.03.46.03.7.04l5.09.27c.84.05,1.69.1,2.63.12l2.65.1c1.76.06,3.51.12,5.25.15,3.48.06,6.96.07,10.34-.17,1.68-.1,3.36-.28,4.9-.57.4-.06.77-.14,1.12-.23.35-.09.76-.16,1.04-.27l.9-.31c.18-.11.36-.22.54-.3l.65-.29c2.43-1.07,5.26.03,6.33,2.46,1.07,2.43-.03,5.26-2.46,6.33-.05.02-.12.05-.17.07Z"/>
    </g>
  </g>
</svg>